<svg xmlns="http://www.w3.org/2000/svg" width="1440" height="1024" viewBox="0 0 1440 1024">
  <title>MEMBER-03 QR 체크인</title>
  <rect width="1440" height="1024" fill="#F4F7F6"/>
  
<rect x="0" y="0" width="240" height="1024" rx="0" fill="#15332C" stroke="none" stroke-width="1"/><circle cx="42" cy="44" r="20" fill="#C7F04B" stroke="none" stroke-width="1"/><text x="42" y="50" font-family="Pretendard, Inter, Arial, sans-serif" font-size="16" font-weight="900" fill="#15332C" text-anchor="middle">G</text><text x="72" y="51" font-family="Pretendard, Inter, Arial, sans-serif" font-size="23" font-weight="800" fill="#FFFFFF" text-anchor="start">Gymrovia</text>
  <text x="28" y="104" font-family="Pretendard, Inter, Arial, sans-serif" font-size="11" font-weight="700" fill="#8FB2A6" text-anchor="start">회원</text><circle cx="41" cy="129" r="4" fill="#7DA397" stroke="none" stroke-width="1"/><text x="61" y="134" font-family="Pretendard, Inter, Arial, sans-serif" font-size="14" font-weight="500" fill="#C4D5CF" text-anchor="start">마이페이지</text><rect x="18" y="165" width="204" height="44" rx="12" fill="#245145" stroke="none" stroke-width="1"/><circle cx="41" cy="187" r="4" fill="#C7F04B" stroke="none" stroke-width="1"/><text x="61" y="192" font-family="Pretendard, Inter, Arial, sans-serif" font-size="14" font-weight="700" fill="#FFFFFF" text-anchor="start">QR 출석</text><circle cx="41" cy="245" r="4" fill="#7DA397" stroke="none" stroke-width="1"/><text x="61" y="250" font-family="Pretendard, Inter, Arial, sans-serif" font-size="14" font-weight="500" fill="#C4D5CF" text-anchor="start">운동 루틴</text><circle cx="41" cy="303" r="4" fill="#7DA397" stroke="none" stroke-width="1"/><text x="61" y="308" font-family="Pretendard, Inter, Arial, sans-serif" font-size="14" font-weight="500" fill="#C4D5CF" text-anchor="start">운동 기록</text><circle cx="41" cy="361" r="4" fill="#7DA397" stroke="none" stroke-width="1"/><text x="61" y="366" font-family="Pretendard, Inter, Arial, sans-serif" font-size="14" font-weight="500" fill="#C4D5CF" text-anchor="start">이용 내역</text><rect x="20" y="922" width="200" height="72" rx="16" fill="#1D443A" stroke="none" stroke-width="1"/><circle cx="48" cy="958" r="18" fill="#C7F04B" stroke="none" stroke-width="1"/><text x="48" y="963" font-family="Pretendard, Inter, Arial, sans-serif" font-size="13" font-weight="800" fill="#15332C" text-anchor="middle">회</text>
  <text x="76" y="952" font-family="Pretendard, Inter, Arial, sans-serif" font-size="13" font-weight="700" fill="#FFFFFF" text-anchor="start">김지훈 회원</text>
  <text x="76" y="973" font-family="Pretendard, Inter, Arial, sans-serif" font-size="11" font-weight="500" fill="#96B9AD" text-anchor="start">온라인</text><text x="202" y="963" font-family="Pretendard, Inter, Arial, sans-serif" font-size="18" font-weight="700" fill="#96B9AD" text-anchor="middle">⋯</text><text x="280" y="55" font-family="Pretendard, Inter, Arial, sans-serif" font-size="26" font-weight="800" fill="#13211D" text-anchor="start">QR 체크인</text><text x="280" y="80" font-family="Pretendard, Inter, Arial, sans-serif" font-size="13" font-weight="500" fill="#6B7873" text-anchor="start">센터 입구의 QR을 스캔하여 입장합니다.</text>
  
  <line x1="260" y1="104" x2="1410" y2="104" stroke="#DDE6E2" stroke-width="1" />
<rect x="280" y="132" width="700" height="812" rx="24" fill="#FFFFFF" stroke="#DDE6E2" stroke-width="1"/>
<text x="630" y="188" font-family="Pretendard, Inter, Arial, sans-serif" font-size="25" font-weight="800" fill="#13211D" text-anchor="middle">입장 QR 스캔</text><text x="630" y="218" font-family="Pretendard, Inter, Arial, sans-serif" font-size="13" font-weight="500" fill="#6B7873" text-anchor="middle">활성 회원권 확인 후 출석이 기록됩니다.</text>
<rect x="402" y="272" width="456" height="456" rx="30" fill="#15332C" stroke="none" stroke-width="1"/><rect x="448" y="318" width="364" height="364" rx="18" fill="#FFFFFF" stroke="none" stroke-width="1"/>
<rect x="468" y="338" width="20" height="20" rx="3" fill="#15332C" stroke="none" stroke-width="1"/><rect x="596" y="338" width="20" height="20" rx="3" fill="#15332C" stroke="none" stroke-width="1"/><rect x="724" y="338" width="20" height="20" rx="3" fill="#15332C" stroke="none" stroke-width="1"/><rect x="468" y="402" width="20" height="20" rx="3" fill="#15332C" stroke="none" stroke-width="1"/><rect x="596" y="402" width="20" height="20" rx="3" fill="#15332C" stroke="none" stroke-width="1"/><rect x="724" y="402" width="20" height="20" rx="3" fill="#15332C" stroke="none" stroke-width="1"/><rect x="500" y="434" width="20" height="20" rx="3" fill="#15332C" stroke="none" stroke-width="1"/><rect x="564" y="434" width="20" height="20" rx="3" fill="#15332C" stroke="none" stroke-width="1"/><rect x="628" y="434" width="20" height="20" rx="3" fill="#15332C" stroke="none" stroke-width="1"/><rect x="692" y="434" width="20" height="20" rx="3" fill="#15332C" stroke="none" stroke-width="1"/><rect x="756" y="434" width="20" height="20" rx="3" fill="#15332C" stroke="none" stroke-width="1"/><rect x="468" y="466" width="20" height="20" rx="3" fill="#15332C" stroke="none" stroke-width="1"/><rect x="596" y="466" width="20" height="20" rx="3" fill="#15332C" stroke="none" stroke-width="1"/><rect x="724" y="466" width="20" height="20" rx="3" fill="#15332C" stroke="none" stroke-width="1"/><rect x="468" y="530" width="20" height="20" rx="3" fill="#15332C" stroke="none" stroke-width="1"/><rect x="596" y="530" width="20" height="20" rx="3" fill="#15332C" stroke="none" stroke-width="1"/><rect x="724" y="530" width="20" height="20" rx="3" fill="#15332C" stroke="none" stroke-width="1"/><rect x="500" y="562" width="20" height="20" rx="3" fill="#15332C" stroke="none" stroke-width="1"/><rect x="564" y="562" width="20" height="20" rx="3" fill="#15332C" stroke="none" stroke-width="1"/><rect x="628" y="562" width="20" height="20" rx="3" fill="#15332C" stroke="none" stroke-width="1"/><rect x="692" y="562" width="20" height="20" rx="3" fill="#15332C" stroke="none" stroke-width="1"/><rect x="756" y="562" width="20" height="20" rx="3" fill="#15332C" stroke="none" stroke-width="1"/><rect x="468" y="594" width="20" height="20" rx="3" fill="#15332C" stroke="none" stroke-width="1"/><rect x="596" y="594" width="20" height="20" rx="3" fill="#15332C" stroke="none" stroke-width="1"/><rect x="724" y="594" width="20" height="20" rx="3" fill="#15332C" stroke="none" stroke-width="1"/>
<rect x="468" y="338" width="92" height="92" rx="4" fill="none" stroke="#0B6B4F" stroke-width="8"/><rect x="700" y="338" width="92" height="92" rx="4" fill="none" stroke="#0B6B4F" stroke-width="8"/><rect x="468" y="570" width="92" height="92" rx="4" fill="none" stroke="#0B6B4F" stroke-width="8"/><line x1="424" y1="500" x2="836" y2="500" stroke="#C7F04B" stroke-width="3" />
<rect x="558" y="758" width="144" height="28" rx="14" fill="#DDF4EA" stroke="none" stroke-width="1"/><text x="630" y="777" font-family="Pretendard, Inter, Arial, sans-serif" font-size="12" font-weight="700" fill="#0B6B4F" text-anchor="middle">카메라 준비 완료</text><rect x="448" y="814" width="364" height="44" rx="12" fill="#0B6B4F" stroke="none" stroke-width="1"/><text x="630" y="842" font-family="Pretendard, Inter, Arial, sans-serif" font-size="14" font-weight="700" fill="#FFFFFF" text-anchor="middle">QR 스캔 시작</text>
<rect x="1004" y="132" width="396" height="360" rx="20" fill="#FFFFFF" stroke="#DDE6E2" stroke-width="1"/><text x="1036" y="176" font-family="Pretendard, Inter, Arial, sans-serif" font-size="19" font-weight="800" fill="#13211D" text-anchor="start">회원권 확인</text><rect x="1272" y="154" width="96" height="28" rx="14" fill="#DDF4EA" stroke="none" stroke-width="1"/><text x="1320" y="173" font-family="Pretendard, Inter, Arial, sans-serif" font-size="12" font-weight="700" fill="#0B6B4F" text-anchor="middle">이용 가능</text>
<circle cx="1060" cy="232" r="22" fill="#DDF4EA" stroke="none" stroke-width="1"/><text x="1060" y="238" font-family="Pretendard, Inter, Arial, sans-serif" font-size="12" font-weight="800" fill="#0B6B4F" text-anchor="middle">김</text><text x="1098" y="226" font-family="Pretendard, Inter, Arial, sans-serif" font-size="15" font-weight="800" fill="#13211D" text-anchor="start">김지훈</text><text x="1098" y="250" font-family="Pretendard, Inter, Arial, sans-serif" font-size="12" font-weight="500" fill="#6B7873" text-anchor="start">3개월 자유 이용권</text>
<text x="1036" y="302" font-family="Pretendard, Inter, Arial, sans-serif" font-size="12" font-weight="600" fill="#6B7873" text-anchor="start">만료일</text><text x="1368" y="302" font-family="Pretendard, Inter, Arial, sans-serif" font-size="13" font-weight="700" fill="#13211D" text-anchor="end">2026.08.11 · D-12</text>
<text x="1036" y="346" font-family="Pretendard, Inter, Arial, sans-serif" font-size="12" font-weight="600" fill="#6B7873" text-anchor="start">오늘 출석</text><text x="1368" y="346" font-family="Pretendard, Inter, Arial, sans-serif" font-size="13" font-weight="700" fill="#13211D" text-anchor="end">기록 없음</text>
<rect x="1036" y="382" width="332" height="72" rx="14" fill="#DDF4EA" stroke="none" stroke-width="1"/><text x="1058" y="412" font-family="Pretendard, Inter, Arial, sans-serif" font-size="13" font-weight="700" fill="#0B6B4F" text-anchor="start">체크인 가능한 상태입니다</text><text x="1058" y="434" font-family="Pretendard, Inter, Arial, sans-serif" font-size="11" font-weight="500" fill="#6B7873" text-anchor="start">QR 인증 후 입장 시간이 기록됩니다.</text>
<rect x="1004" y="516" width="396" height="294" rx="20" fill="#FFFFFF" stroke="#DDE6E2" stroke-width="1"/><text x="1036" y="560" font-family="Pretendard, Inter, Arial, sans-serif" font-size="19" font-weight="800" fill="#13211D" text-anchor="start">이용 안내</text>
<circle cx="1046" cy="610" r="5" fill="#13A36F" stroke="none" stroke-width="1"/><text x="1064" y="615" font-family="Pretendard, Inter, Arial, sans-serif" font-size="12" font-weight="600" fill="#13211D" text-anchor="start">회원권이 만료되면 입장이 제한됩니다.</text><circle cx="1046" cy="666" r="5" fill="#F4A63A" stroke="none" stroke-width="1"/><text x="1064" y="671" font-family="Pretendard, Inter, Arial, sans-serif" font-size="12" font-weight="600" fill="#13211D" text-anchor="start">이미 입실 중이면 중복 체크인할 수 없습니다.</text><circle cx="1046" cy="722" r="5" fill="#3378C5" stroke="none" stroke-width="1"/><text x="1064" y="727" font-family="Pretendard, Inter, Arial, sans-serif" font-size="12" font-weight="600" fill="#13211D" text-anchor="start">퇴실 시 같은 화면에서 체크아웃하세요.</text>

  </svg>